<svg width="32" height="32" fill="none" xmlns="http://www.w3.org/2000/svg"><circle cx="16" cy="16" r="16" fill="#00B900"/><path d="M27 14.943C27 10.012 22.066 6 16 6 9.935 6 5 10.012 5 14.943c0 4.42 3.913 8.123 9.2 8.823.358.077.845.236.969.543.11.279.072.715.035.996l-.157.944c-.048.278-.22 1.09.953.594 1.174-.496 6.335-3.737 8.643-6.398C26.235 18.694 27 16.916 27 14.943Z" fill="#fff"/><path fill-rule="evenodd" clip-rule="evenodd" d="M11.905 16.588H9.81v-3.814a.214.214 0 0 0-.215-.214h-.771a.214.214 0 0 0-.215.214v4.802c0 .058.024.11.06.148h.001l.002.004a.213.213 0 0 0 .15.062h3.084a.214.214 0 0 0 .214-.214v-.773a.214.214 0 0 0-.214-.215Zm1.088-4.028h.772c.118 0 .214.096.214.214v4.802a.214.214 0 0 1-.214.214h-.772a.214.214 0 0 1-.214-.214v-4.802c0-.118.096-.214.214-.214Zm5.311 0h.772c.118 0 .214.096.214.214v4.802a.214.214 0 0 1-.214.214h-.772a.203.203 0 0 1-.054-.007h-.004a.411.411 0 0 1-.014-.006h-.003l-.004-.002-.01-.004-.01-.005-.002-.001a.12.12 0 0 1-.018-.01l-.002-.002a.214.214 0 0 1-.054-.053l-2.2-2.976v2.852a.214.214 0 0 1-.214.214h-.771a.214.214 0 0 1-.215-.214v-4.802c0-.118.096-.214.215-.214h.779l.01.001h.005l.007.002h.009l.012.003.008.002a.108.108 0 0 1 .02.007l.012.005.007.004.01.006.003.001c.002 0 .003.002.005.003l.01.007h.001a.115.115 0 0 1 .013.01l.004.004.004.004a.41.41 0 0 1 .013.013v.002a.222.222 0 0 1 .017.021l2.197 2.972v-2.853c0-.118.096-.214.214-.214Zm5.247.988a.214.214 0 0 1-.214.214H21.24v.812h2.096c.118 0 .214.096.214.215v.773a.214.214 0 0 1-.214.214H21.24v.812h2.096c.118 0 .214.096.214.215v.773a.214.214 0 0 1-.214.214h-3.082a.212.212 0 0 1-.155-.066.211.211 0 0 1-.06-.148v-4.801c0-.058.023-.11.06-.148 0-.002.002-.003.003-.004l.003-.002a.213.213 0 0 1 .148-.06h3.083c.118 0 .214.095.214.214v.773Z" fill="#00B900"/></svg>